# xmcd
#
# Track frame offsets: 
#        150
#        3520
#        32270
#        50008
#        77989
#        106072
#        120291
#        146121
#        166238
#
# Disc length: 2476 seconds
#
# Revision: 0
# Processed by: cddbd v1.5.2PL0 Copyright (c) Steve Scherf et al.
# Submitted via: ExactAudioCopy v0.99pb4
#
DISCID=6709aa09
DTITLE=The Pits  - Up in Front
DYEAR=2005
DGENRE=Guitar Blues 
TTITLE0=Livin' in Exile
TTITLE1=Derrianne
TTITLE2=Stuck in Traffic
TTITLE3=It's Raining Sunshine
TTITLE4=Movin' On
TTITLE5=Borderline
TTITLE6=I Can't Wake Up
TTITLE7=Wings
TTITLE8=You're Everywhere (But Here)
EXTD=
EXTT0=
EXTT1=
EXTT2=
EXTT3=
EXTT4=
EXTT5=
EXTT6=
EXTT7=
EXTT8=
PLAYORDER=
